# xmcd
#
# Track frame offsets: 
#        150
#        26880
#        44956
#        65603
#        84675
#        103188
#        113560
#        135054
#        164598
#        186166
#        207448
#        230076
#        249395
#        270357
#        286972
#
# Disc length: 4152 seconds
#
# Revision: 2
# Processed by: cddbd v1.5.2PL0 Copyright (c) Steve Scherf et al.
# Submitted via: ExactAudioCopyFreeDBPlugin 1.0
#
DISCID=de10360f
DTITLE=Willy Michl - den sie WILLY MICHL nennen
DYEAR=2008
DGENRE=Blues Alpen-Blues
TTITLE0=Der Falk
TTITLE1=Blues Goes To Mountain
TTITLE2=Bahnhofsblues
TTITLE3=Morgenstund
TTITLE4=Es is scho a Kreuz
TTITLE5=G'fängnislied
TTITLE6=Isarflimmern
TTITLE7=Geh mit mir
TTITLE8=Viele kommen und viele gehen
TTITLE9=Earth Mother Is Talkin' To You
TTITLE10=Frühling
TTITLE11=Das Land Nepal
TTITLE12=Die 5. Dimension
TTITLE13=Abschied
TTITLE14=Da dea ma uns ned owe
EXTD=
EXTT0=
EXTT1=
EXTT2=
EXTT3=
EXTT4=
EXTT5=
EXTT6=
EXTT7=
EXTT8=
EXTT9=
EXTT10=
EXTT11=
EXTT12=
EXTT13=
EXTT14=
PLAYORDER=
